<svg width="120" height="120" viewBox="0 0 120 120" fill="none" xmlns="http://www.w3.org/2000/svg">
<path d="M59.9999 107.6C86.2887 107.6 107.6 86.2888 107.6 60C107.6 33.7113 86.2887 12.4 59.9999 12.4C33.7111 12.4 12.3999 33.7113 12.3999 60C12.3999 86.2888 33.7111 107.6 59.9999 107.6Z" fill="#B6D9FF"/>
<path d="M107.6 58C106.5 58 105.6 58.9 105.6 60C105.6 85.1 85.0999 105.6 59.9999 105.6C34.8999 105.6 14.3999 85.1 14.3999 60C14.3999 34.9 34.8999 14.4 59.9999 14.4C78.7999 14.4 95.3999 25.7 102.4 43.1C102.8 44.1 104 44.6 105 44.2C106 43.8 106.5 42.6 106.1 41.6C98.4999 22.6 80.3999 10.4 59.9999 10.4C32.6999 10.4 10.3999 32.6 10.3999 60C10.3999 87.4 32.5999 109.6 59.9999 109.6C87.3999 109.6 109.6 87.4 109.6 60C109.6 58.9 108.7 58 107.6 58Z" fill="black"/>
<path d="M59.9001 59.5C67.2455 59.5 73.2001 53.5454 73.2001 46.2C73.2001 38.8546 67.2455 32.9 59.9001 32.9C52.5547 32.9 46.6001 38.8546 46.6001 46.2C46.6001 53.5454 52.5547 59.5 59.9001 59.5Z" fill="black"/>
<path d="M29.5 82V83.1C29.5 85.3 31.3 87.1 33.5 87.1H86.4C88.6 87.1 90.4 85.3 90.4 83.1V82C84.9 70.8 73.3 62.9 59.9 62.9C46.5 62.9 34.9 70.6 29.5 82Z" fill="black"/>
</svg>
