<svg id="Layer_1" data-name="Layer 1" xmlns="http://www.w3.org/2000/svg" viewBox="0 0 1024 1024"><defs><style>.cls-1{font-size:122.04px;fill:#231f20;font-family:Prototype;}</style></defs><path d="M481.41,350.11c-21.4.29-35.25,18-29.41,38.78,2.6,9.23,7.94,18.07,13.6,26,7.57,10.56,17,19.76,25,30.07a78.78,78.78,0,0,1,11.5,19.64,36.46,36.46,0,0,1-30.25,49.22c-11.8,1.22-23.8.58-35.71.73a44.59,44.59,0,0,1-5-.51c-.12-2.16-.34-4.12-.34-6.07q0-60.06,0-120.1c0-13.56,2.76-26.38,11.11-37.44C460.34,325.91,500,329,512.08,356c6.37,14.17,4,27.58-5.22,40,9.88,1.4,21.69-5.91,27.66-16.81,7.87-14.37,5.17-28.13-8.63-44,13.46-3.21,34.39,7.67,43,22.45,7.83,13.39,10.89,34.7-10.57,55.41,15.28,8.63,25.47,21.18,28.64,38.53a52.24,52.24,0,0,1-4.8,33.45c-11.14,22.27-35,33.18-63.72,28.74,1.69-1.48,3.17-2.71,4.57-4,14.24-13.35,18.67-29.76,12.34-47.89-3.25-9.32-8.91-18.17-15-26.05-8-10.26-17.53-19.27-26.25-29a171.87,171.87,0,0,1-12.88-15.55C470.5,376.12,470.6,366.92,481.41,350.11Z"/><text class="cls-1" transform="translate(229.97 655.95)">SmallBuzz</text></svg>