<svg id="Layer_1" data-name="Layer 1" xmlns="http://www.w3.org/2000/svg" viewBox="0 0 1024 1024"><defs><style>.cls-1{fill:#231f20;}</style></defs><path d="M502.05,360.72c-20.95.28-34.52,17.62-28.8,38,2.54,9,7.77,17.69,13.32,25.42,7.41,10.34,16.67,19.35,24.45,29.46a76.61,76.61,0,0,1,11.26,19.23A35.7,35.7,0,0,1,492.66,521c-11.56,1.19-23.31.57-35,.71a44.72,44.72,0,0,1-4.9-.5c-.12-2.12-.34-4-.34-6q0-58.81,0-117.62c0-13.29,2.7-25.84,10.88-36.67,18.1-24,56.9-20.93,68.78,5.48,6.24,13.88,3.91,27-5.11,39.19,9.68,1.37,21.24-5.78,27.09-16.47,7.71-14.07,5.06-27.54-8.45-43.06,13.18-3.14,33.68,7.51,42.13,22,7.66,13.11,10.66,34-10.35,54.27,15,8.45,24.94,20.74,28.05,37.74a51.11,51.11,0,0,1-4.7,32.75c-10.91,21.82-34.27,32.5-62.41,28.15,1.65-1.45,3.1-2.65,4.48-3.94,13.94-13.08,18.28-29.15,12.09-46.9-3.19-9.14-8.73-17.8-14.71-25.52-7.8-10.05-17.17-18.88-25.7-28.37a168.44,168.44,0,0,1-12.63-15.24C491.37,386.19,491.46,377.18,502.05,360.72Z"/><path class="cls-1" d="M283,624.63a36.1,36.1,0,0,1-8-1,18.92,18.92,0,0,1-7.71-3.71,14.93,14.93,0,0,1-3.4-4,25.66,25.66,0,0,1-2.27-5,32.39,32.39,0,0,1-1.32-5.5,37.47,37.47,0,0,1-.42-5.56v-2.27a9.84,9.84,0,0,1,.24-2.15q.84-10.4,7.77-16.14a28.68,28.68,0,0,1,5-3.22,12.58,12.58,0,0,1,5.86-1.56h39.56a1.06,1.06,0,0,1,1.2,1.2V588.9a1.06,1.06,0,0,1-1.2,1.19H283.88a4.09,4.09,0,0,0-3.05,1.49,11.16,11.16,0,0,0-2,2.81,6.89,6.89,0,0,0-.72,2.39c-.08.8-.12,1.6-.12,2.39a33.73,33.73,0,0,0,.24,4,6.33,6.33,0,0,0,1.67,3.59,5.85,5.85,0,0,0,3.65,1.55,49.64,49.64,0,0,0,5.08.24h13.39a32.38,32.38,0,0,1,7.76,1,19,19,0,0,1,7.53,3.89,14.63,14.63,0,0,1,3.41,4.06A27.36,27.36,0,0,1,323,622.6a30.06,30.06,0,0,1,1.26,5.74,47.93,47.93,0,0,1,.36,5.74v2.51a8.36,8.36,0,0,1-.24,2q-1,10.88-7.65,16.73a32.8,32.8,0,0,1-5,3.29,11.66,11.66,0,0,1-5.56,1.61H262.72a1.05,1.05,0,0,1-1.19-1.19V645.91a1.05,1.05,0,0,1,1.19-1.2h38.49a3.83,3.83,0,0,0,3.11-1.73,15,15,0,0,0,1.91-3.17,7.92,7.92,0,0,0,.72-2.51c.07-.79.12-1.63.12-2.51a37.56,37.56,0,0,0-.24-4,6.91,6.91,0,0,0-1.68-3.77,6.58,6.58,0,0,0-3.4-1.85,22.16,22.16,0,0,0-5.2-.54Z"/><path class="cls-1" d="M333.48,605.15a6.6,6.6,0,0,1,2.33-5.08,7.35,7.35,0,0,1,5-2.09h24.74a11.86,11.86,0,0,1,5.74,1.43,17.44,17.44,0,0,1,3.82,2.63l1.38,1.38c.52.52.85.77,1,.77a1.12,1.12,0,0,0,.66-.41q.42-.42,1-1.14a17.3,17.3,0,0,1,1.49-1.55,8.28,8.28,0,0,1,2.21-1.44,11.91,11.91,0,0,1,4.84-1.49c1.64-.12,2.69-.18,3.17-.18h8.49a21.44,21.44,0,0,1,9,1.85,24.35,24.35,0,0,1,7,4.72,21.45,21.45,0,0,1,4.55,6.4,16.53,16.53,0,0,1,1.61,6.87v41.24a1.06,1.06,0,0,1-1.2,1.19H408.18c-.88,0-1.31-.4-1.31-1.19V619.37A6.8,6.8,0,0,0,406,616a9.36,9.36,0,0,0-2.09-2.57,8.75,8.75,0,0,0-2.75-1.62,8.51,8.51,0,0,0-2.81-.53h-7.89a6.87,6.87,0,0,0-4.24,1.61,5.59,5.59,0,0,0-2.09,4.72v41.48a1.06,1.06,0,0,1-1.2,1.19H370.77a1.05,1.05,0,0,1-1.19-1.19V617.58a5.69,5.69,0,0,0-2.33-4.36,7.69,7.69,0,0,0-5.08-2h-11a2.78,2.78,0,0,0-2.21,1.07,3.81,3.81,0,0,0-.9,2.51v44.23a1.05,1.05,0,0,1-1.19,1.19h-12.2a1.05,1.05,0,0,1-1.19-1.19Z"/><path class="cls-1" d="M434.48,598h33.7a14.34,14.34,0,0,1,7.71,2A16.09,16.09,0,0,1,481,605,22.35,22.35,0,0,1,483.9,612a33.3,33.3,0,0,1,.9,7.65v39.45a1.06,1.06,0,0,1-1.2,1.19H441.89A8,8,0,0,1,436,658a15.54,15.54,0,0,1-3.52-5.2,25.9,25.9,0,0,1-1.74-6A25.12,25.12,0,0,1,431,636a24.31,24.31,0,0,1,2.27-6.4,16,16,0,0,1,4.07-5,9.38,9.38,0,0,1,6.09-2h20a7.7,7.7,0,0,0,5-1.49,4.42,4.42,0,0,0,1.86-3.53,5.7,5.7,0,0,0-1.2-3.34,3.66,3.66,0,0,0-3.11-1.68H434.48a1.06,1.06,0,0,1-1.2-1.19v-12.2A1.06,1.06,0,0,1,434.48,598ZM469,646.27a1.06,1.06,0,0,0,1.2-1.2V637.9a1.06,1.06,0,0,0-1.2-1.19H447.74a3.34,3.34,0,0,0-2.74,1.37,4.82,4.82,0,0,0-1.08,3,5.69,5.69,0,0,0,1.2,3.58,4,4,0,0,0,3.34,1.56Z"/><path class="cls-1" d="M495.55,574.55h12.2a1.06,1.06,0,0,1,1.19,1.2v83.31a1.05,1.05,0,0,1-1.19,1.19h-12.2a1.05,1.05,0,0,1-1.19-1.19V575.75A1.06,1.06,0,0,1,495.55,574.55Z"/><path class="cls-1" d="M520.18,574.55h12.19a1.06,1.06,0,0,1,1.19,1.2v83.31a1.05,1.05,0,0,1-1.19,1.19H520.18a1.06,1.06,0,0,1-1.2-1.19V575.75A1.06,1.06,0,0,1,520.18,574.55Z"/><path class="cls-1" d="M543.6,575.75a1.06,1.06,0,0,1,1.2-1.2h43a21.43,21.43,0,0,1,7.94,1.44,18.29,18.29,0,0,1,6.34,4.12,19.36,19.36,0,0,1,4.24,6.52,22.57,22.57,0,0,1,1.56,8.6,38.51,38.51,0,0,1-1.08,10.22,20,20,0,0,1-2.45,5.74,9.48,9.48,0,0,1-2.45,2.63c-.72.44-1.08.77-1.08,1,0,.4.62,1.24,1.86,2.51s2.61,2.75,4.12,4.42a12.23,12.23,0,0,1,1.49,2.52,26,26,0,0,1,1.14,2.92,16.21,16.21,0,0,1,.66,3,22,22,0,0,1,.18,2.57,51.1,51.1,0,0,1-1.08,10.76,22.81,22.81,0,0,1-3.76,8.72,18.76,18.76,0,0,1-7.12,5.86,25.55,25.55,0,0,1-11.23,2.15H544.8a1.06,1.06,0,0,1-1.2-1.19Zm17.33,31.91a1.06,1.06,0,0,0,1.2,1.2h20.68q4.77,0,6.81-2.1t2-7.59q0-5.13-2.63-7.11a10.08,10.08,0,0,0-6.21-2H562.13a1.06,1.06,0,0,0-1.2,1.2Zm0,35.86a1.05,1.05,0,0,0,1.2,1.19h25.22a5.07,5.07,0,0,0,3.34-1.07,8.55,8.55,0,0,0,2.16-2.69,11.7,11.7,0,0,0,1.13-3.41,19.13,19.13,0,0,0,.3-3.11,13.86,13.86,0,0,0-.66-4.6A8.27,8.27,0,0,0,592,626.9a5.57,5.57,0,0,0-2.27-1.49,7.38,7.38,0,0,0-2.33-.42H562.13a1.06,1.06,0,0,0-1.2,1.2Z"/><path class="cls-1" d="M658.46,598h12.2a1.05,1.05,0,0,1,1.19,1.19v47.1a9.79,9.79,0,0,1-2.33,6.57,17.75,17.75,0,0,1-6.09,4.54,32.61,32.61,0,0,1-8.49,2.63,54.82,54.82,0,0,1-19.12,0,31.69,31.69,0,0,1-8.43-2.63,18,18,0,0,1-6-4.54,9.84,9.84,0,0,1-2.33-6.57v-47.1a1.06,1.06,0,0,1,1.2-1.19h12.19a1.05,1.05,0,0,1,1.19,1.19v42a2.8,2.8,0,0,0,1,2,9.07,9.07,0,0,0,2.63,1.67,15.61,15.61,0,0,0,3.76,1.08,26.84,26.84,0,0,0,4.43.36,25.74,25.74,0,0,0,4.36-.36,16.6,16.6,0,0,0,3.76-1.08,8.78,8.78,0,0,0,2.69-1.67,2.8,2.8,0,0,0,1-2v-42A1.05,1.05,0,0,1,658.46,598Z"/><path class="cls-1" d="M694.32,660.25q-7.53,0-10.46-2.69a9.49,9.49,0,0,1-2.93-7.35,9.09,9.09,0,0,1,1-4.24,15.16,15.16,0,0,1,2.81-3.77l27.61-27.49a1.45,1.45,0,0,0,.48-1.07c0-.72-.68-1.08-2-1.08H683.56a1.05,1.05,0,0,1-1.19-1.19v-12.2a1.05,1.05,0,0,1,1.19-1.19h39.21q7.05,0,9.68,2.69t2.63,8.19a11.55,11.55,0,0,1-.72,4.3,9.21,9.21,0,0,1-2,3.11l-26.89,26.89a2.34,2.34,0,0,0-.84,1.55q0,1,1.32,1h27.49a1.06,1.06,0,0,1,1.19,1.2v12.19a1.05,1.05,0,0,1-1.19,1.19Z"/><path class="cls-1" d="M757.55,660.25q-7.53,0-10.46-2.69a9.49,9.49,0,0,1-2.93-7.35,9.09,9.09,0,0,1,1-4.24A14.91,14.91,0,0,1,748,642.2l27.61-27.49a1.49,1.49,0,0,0,.48-1.07q0-1.08-2-1.08H746.79a1.05,1.05,0,0,1-1.19-1.19v-12.2a1.05,1.05,0,0,1,1.19-1.19H786q7.05,0,9.68,2.69t2.63,8.19a11.55,11.55,0,0,1-.72,4.3,9.36,9.36,0,0,1-2,3.11l-26.9,26.89a2.37,2.37,0,0,0-.83,1.55c0,.64.43,1,1.31,1h27.49a1.06,1.06,0,0,1,1.2,1.2v12.19a1.06,1.06,0,0,1-1.2,1.19Z"/><path class="cls-1" d="M269.77,690.15V719H266V690.15Z"/><path class="cls-1" d="M276.27,719V690.15h4.07l9.24,14.59a81.13,81.13,0,0,1,5.18,9.38l.09,0c-.35-3.85-.43-7.36-.43-11.85V690.15h3.51V719h-3.77L285,704.36a93.14,93.14,0,0,1-5.39-9.63l-.13,0c.22,3.64.3,7.1.3,11.9V719Z"/><path class="cls-1" d="M304.43,719V690.15h4.07l9.24,14.59a81.13,81.13,0,0,1,5.18,9.38l.09,0c-.35-3.85-.43-7.36-.43-11.85V690.15h3.51V719h-3.77l-9.16-14.63a91.32,91.32,0,0,1-5.39-9.63l-.13,0c.21,3.64.3,7.1.3,11.9V719Z"/><path class="cls-1" d="M357.24,704.27c0,9.93-6,15.19-13.39,15.19-7.62,0-13-5.9-13-14.63,0-9.16,5.69-15.15,13.39-15.15C352.15,689.68,357.24,695.71,357.24,704.27Zm-22.38.47c0,6.16,3.34,11.69,9.2,11.69s9.24-5.44,9.24-12c0-5.73-3-11.73-9.2-11.73S334.86,698.41,334.86,704.74Z"/><path class="cls-1" d="M368.41,719,359,690.15h4l4.49,14.21c1.24,3.89,2.31,7.4,3.08,10.78h.09c.81-3.34,2-7,3.29-10.74l4.88-14.25h4L372.52,719Z"/><path class="cls-1" d="M388.18,709.92l-3,9.07h-3.86l9.8-28.84h4.5L405.47,719h-4l-3.08-9.07Zm9.46-2.91-2.82-8.3c-.65-1.89-1.07-3.6-1.5-5.27h-.09c-.43,1.71-.9,3.47-1.45,5.22L389,707Z"/><path class="cls-1" d="M411.89,693.31h-8.77v-3.16h21.35v3.16h-8.81V719h-3.77Z"/><path class="cls-1" d="M431.4,690.15V719h-3.72V690.15Z"/><path class="cls-1" d="M437.91,719V690.15H442l9.25,14.59a81.13,81.13,0,0,1,5.18,9.38l.08,0c-.34-3.85-.42-7.36-.42-11.85V690.15h3.51V719H455.8l-9.16-14.63a91.32,91.32,0,0,1-5.39-9.63l-.13,0c.21,3.64.3,7.1.3,11.9V719Z"/><path class="cls-1" d="M488,717.71a26.85,26.85,0,0,1-8.86,1.58c-4.36,0-8-1.11-10.78-3.81-2.48-2.39-4-6.24-4-10.74,0-8.6,5.94-14.89,15.62-14.89a17.83,17.83,0,0,1,7.19,1.32l-.9,3a15,15,0,0,0-6.38-1.24c-7,0-11.6,4.37-11.6,11.6s4.41,11.64,11.13,11.64a12.15,12.15,0,0,0,5-.77v-8.6h-5.87v-3H488Z"/><path class="cls-1" d="M527.44,704.27c0,9.93-6,15.19-13.4,15.19-7.62,0-13-5.9-13-14.63,0-9.16,5.7-15.15,13.4-15.15C522.34,689.68,527.44,695.71,527.44,704.27Zm-22.39.47c0,6.16,3.34,11.69,9.21,11.69s9.24-5.44,9.24-12c0-5.73-3-11.73-9.2-11.73S505.05,698.41,505.05,704.74Z"/><path class="cls-1" d="M536,690.15v17.07c0,6.47,2.87,9.21,6.72,9.21,4.28,0,7-2.83,7-9.21V690.15h3.77V707c0,8.86-4.67,12.49-10.91,12.49-5.91,0-10.36-3.38-10.36-12.32v-17Z"/><path class="cls-1" d="M560,690.53a39.22,39.22,0,0,1,7.15-.6c4,0,6.54.73,8.34,2.36a7.15,7.15,0,0,1,2.27,5.47,7.59,7.59,0,0,1-5.44,7.37v.12c2.23.78,3.56,2.83,4.24,5.83.94,4,1.63,6.8,2.23,7.91H574.9A36,36,0,0,1,573,712.1c-.86-4-2.4-5.47-5.78-5.6h-3.51V719H560Zm3.72,13.14h3.81c4,0,6.51-2.18,6.51-5.48,0-3.72-2.7-5.35-6.64-5.39a15.4,15.4,0,0,0-3.68.34Z"/><path class="cls-1" d="M591.54,714.46a13.28,13.28,0,0,0,6.68,1.88c3.81,0,6-2,6-4.92,0-2.7-1.54-4.24-5.43-5.74-4.71-1.67-7.62-4.11-7.62-8.17,0-4.5,3.72-7.83,9.33-7.83a13.12,13.12,0,0,1,6.38,1.41l-1,3a11.42,11.42,0,0,0-5.48-1.37c-3.94,0-5.44,2.35-5.44,4.32,0,2.7,1.76,4,5.74,5.56,4.88,1.89,7.36,4.24,7.36,8.48,0,4.45-3.29,8.3-10.1,8.3a14.87,14.87,0,0,1-7.36-1.84Z"/><path class="cls-1" d="M637.8,704.27c0,9.93-6,15.19-13.39,15.19-7.62,0-13-5.9-13-14.63,0-9.16,5.69-15.15,13.4-15.15C632.71,689.68,637.8,695.71,637.8,704.27Zm-22.38.47c0,6.16,3.34,11.69,9.2,11.69s9.25-5.44,9.25-12c0-5.73-3-11.73-9.2-11.73S615.42,698.41,615.42,704.74Z"/><path class="cls-1" d="M642.64,690.15h3.72v25.72h12.33V719H642.64Z"/><path class="cls-1" d="M665,690.15v17.07c0,6.47,2.87,9.21,6.72,9.21,4.28,0,7-2.83,7-9.21V690.15h3.76V707c0,8.86-4.66,12.49-10.91,12.49-5.91,0-10.36-3.38-10.36-12.32v-17Z"/><path class="cls-1" d="M694.46,693.31h-8.77v-3.16H707v3.16h-8.81V719h-3.77Z"/><path class="cls-1" d="M714,690.15V719h-3.72V690.15Z"/><path class="cls-1" d="M745.13,704.27c0,9.93-6,15.19-13.39,15.19-7.62,0-13-5.9-13-14.63,0-9.16,5.69-15.15,13.39-15.15C740,689.68,745.13,695.71,745.13,704.27Zm-22.38.47c0,6.16,3.33,11.69,9.2,11.69s9.24-5.44,9.24-12c0-5.73-3-11.73-9.2-11.73S722.75,698.41,722.75,704.74Z"/><path class="cls-1" d="M750,719V690.15H754l9.24,14.59a79.65,79.65,0,0,1,5.18,9.38l.09,0c-.34-3.85-.43-7.36-.43-11.85V690.15h3.51V719h-3.77l-9.15-14.63a91.46,91.46,0,0,1-5.4-9.63l-.13,0c.22,3.64.3,7.1.3,11.9V719Z"/><path class="cls-1" d="M777.61,714.46a13.28,13.28,0,0,0,6.68,1.88c3.81,0,6-2,6-4.92,0-2.7-1.54-4.24-5.43-5.74-4.71-1.67-7.62-4.11-7.62-8.17,0-4.5,3.72-7.83,9.33-7.83a13,13,0,0,1,6.37,1.41l-1,3a11.42,11.42,0,0,0-5.48-1.37c-3.94,0-5.44,2.35-5.44,4.32,0,2.7,1.76,4,5.74,5.56,4.88,1.89,7.36,4.24,7.36,8.48,0,4.45-3.3,8.3-10.1,8.3a14.87,14.87,0,0,1-7.36-1.84Z"/></svg>